<?xml version="1.0" encoding="UTF-8"?>
<svg id="Layer_2" data-name="Layer 2" xmlns="http://www.w3.org/2000/svg" viewBox="0 0 127.39 254.67">
  <defs>
    <style>
      .cls-1 {
        fill: #8c1116;
      }

      .cls-1, .cls-2, .cls-3, .cls-4, .cls-5, .cls-6, .cls-7, .cls-8, .cls-9, .cls-10, .cls-11, .cls-12 {
        stroke-width: 0px;
      }

      .cls-2 {
        fill: #565553;
      }

      .cls-3 {
        fill: #969491;
      }

      .cls-4 {
        fill: #fa0000;
      }

      .cls-5 {
        fill: #31302f;
      }

      .cls-6 {
        fill: none;
      }

      .cls-7 {
        fill: #535353;
      }

      .cls-8 {
        fill: #1e1e1d;
      }

      .cls-9 {
        fill: #3a3a3a;
      }

      .cls-10 {
        fill: #21201f;
      }

      .cls-11 {
        fill: #cdb05c;
      }

      .cls-12 {
        fill: #4d4d4d;
      }
    </style>
  </defs>
  <g id="FlatUnion">
    <g>
      <path class="cls-6" d="M74.02,103.78h0l.02.47c0-.23-.02-.39-.02-.47Z"/>
      <path class="cls-6" d="M73.88,103.67c-.94-.83-1.73-1.66-2.36-2.5,1,1.36,2,2.22,2.36,2.5Z"/>
      <path class="cls-6" d="M71.16,100.64c.11.17.23.34.35.5-.12-.17-.23-.33-.35-.5Z"/>
      <path class="cls-6" d="M45.9,236.56s2.65-1.73,6.24-4.55c-1.89,1.46-3.96,2.97-6.24,4.55Z"/>
      <path class="cls-6" d="M84.75,143.22l-2.19-32.06c.66,11.96,1.43,22.76,2.19,32.06Z"/>
      <polygon class="cls-6" points="73.57 83.95 81.14 84.14 73.5 83.93 73.57 83.95 73.57 83.95"/>
      <path class="cls-7" d="M71.1,209.24c.2-1.19.08-1.8.08-1.8l-24.66.91v14.41l-.62,13.79c2.29-1.58,4.35-3.1,6.24-4.55,6.59-5.18,16.37-14.04,18.96-22.76Z"/>
      <path class="cls-3" d="M71.13,209.14s-.02.07-.03.1c-2.59,8.72-12.37,17.59-18.96,22.76-3.59,2.82-6.24,4.55-6.24,4.55l-2.02,18.11s27.76-20.07,40.04-42.34l.98-2.55s-.01,0-.02,0l-13.75-.64Z"/>
      <path class="cls-11" d="M63.16,83l5.5.22,2.73.02,2.11.69,7.63.21-.13,1.82h4.82c.23,0,.45-.07.64-.2.35-.24,1.03-.7,1.95-1.28l-.21-6.6h-10.26l-1.47-.76c-15.55.74-28.44.75-28.44.75h0l-1.71.05s-11.54,7.46-12.31,10.16c0,0,1.23-1.18,3.64-1.96h6.66v-2.91s18.61-.67,18.86-.22Z"/>
      <g>
        <path class="cls-4" d="M101.3,217.66c-4.92-2.9-10.52-5.22-16.66-6.91l-.06-.02c-8.29-2.27-17.72-3.42-28.01-3.42-28.11,0-53.88,8.61-54.13,8.7l-1.17.4-.14-1.23c-2.61-22.63,40.89-61.09,42.74-62.71l1.65-1.45.08,18.52-.52.29c-10.97,6.07-18.17,15.37-21.19,19.82,18.22-6.97,36.2-10.5,53.47-10.5,29.77,0,46.82,10.36,47.53,10.8l1,.62-23.86,27.53-.72-.42Z"/>
        <path class="cls-1" d="M44.51,153.21l.05,12.9v2.83c-15.18,8.41-23.17,22.74-23.17,22.74,21.63-8.69,40.49-11.55,55.95-11.55,29.83,0,47,10.65,47,10.65l-22.54,26.02c-5.27-3.1-10.98-5.38-16.9-7.01,0,0-.01,0-.02,0-9.19-2.52-18.91-3.47-28.33-3.47-28.6,0-54.45,8.75-54.45,8.75-2.58-22.37,42.41-61.85,42.41-61.85M46.49,148.81l-3.3,2.9c-1.87,1.64-45.74,40.43-43.08,63.58l.28,2.46,2.34-.79c.26-.09,25.89-8.64,53.81-8.64,10.23,0,19.58,1.14,27.8,3.4,6.07,1.67,11.59,3.96,16.43,6.81l1.44.85,1.09-1.26,22.54-26.02,1.54-1.77-1.99-1.24c-.72-.45-18.01-10.96-48.06-10.96-16.42,0-33.46,3.17-50.74,9.42,3.62-4.78,10.02-11.92,18.95-16.86l1.04-.57v-1.18s-.02-2.83-.02-2.83l-.05-12.9-.02-4.39h0Z"/>
      </g>
      <g>
        <path class="cls-4" d="M83.76,143.3l-2.21-32.37.15-.34c18.74-32.55-3.7-54.06-6.41-56.48h-.17l-49.57,38.8h-3.08l-.28-.25c-2.66-2.34-15.98-14.17-16.69-17.36-.72-3.23-.05-4.45.18-4.74l.08-.1L57.08,29.23l65.4,39.88.05.5c5.08,52.24-36.88,74.36-37.31,74.58l-1.33.68-.13-1.56Z"/>
        <path class="cls-1" d="M57.16,30.45l64.37,39.25c5.04,51.9-36.73,73.58-36.77,73.6,0-.02,0-.05,0-.07l-2.19-32.06s0-.05,0-.08c20.47-35.55-6.91-57.98-6.91-57.98h-.89l-49.57,38.8h-2.36s-15.7-13.79-16.37-16.82c-.67-3.03,0-3.93,0-3.93L57.16,30.45M57,28.01l-1.09.88L5.21,69.6l-.2.16-.15.2c-.46.61-1.11,2.14-.35,5.56.71,3.19,10.96,12.58,17.01,17.89l.57.5h3.8l.54-.43,48.73-38.14c1.85,1.75,6.66,6.76,9.86,14.37,5.35,12.69,3.94,26.27-4.18,40.38l-.3.52.03.59h0s0,.11,0,.11l2.19,32.06h0s0,.06,0,.06l.24,3,2.67-1.35c.44-.23,10.97-5.78,20.93-17.86,9.19-11.15,19.58-30.22,16.91-57.7l-.1-.99-.85-.52L58.2,28.74l-1.2-.73h0Z"/>
      </g>
      <path class="cls-2" d="M74.02,103.78c0,.08.01.24.02.47l3.57,73.83s8.47-.19,10.79,1.58c0,0-1.79-13.75-3.64-36.37,0-.02,0-.05,0-.07-.76-9.3-1.53-20.1-2.19-32.06,0-.03,0-.05,0-.08-.13-2.41-.26-4.86-.38-7.36h-.07s.07.06.07.06h-8.16Z"/>
      <path class="cls-12" d="M44.64,183.01s4.82-2.8,22.99-4.37l-4.47-95.63c-.25-.45-18.86.22-18.86.22v2.91s8.86,10.02,0,16.92l.27,63.06v2.83s.07,14.07.07,14.07Z"/>
      <path class="cls-9" d="M74.02,103.78h-.02s-.08-.07-.12-.11c-.36-.28-1.36-1.14-2.36-2.5,0,0-.01-.02-.02-.02-.12-.16-.23-.33-.35-.5-5.66-8.31,2.39-16.69,2.39-16.69h.02s0,0,0,0l-.07-.02-2.11-.69-2.73-.02-5.5-.22,4.47,95.63,9.98-.56-3.57-73.83-.02-.47Z"/>
      <path class="cls-5" d="M73.57,83.95h-.02s-8.04,8.38-2.39,16.69c.11.17.22.33.35.5,0,0,.01.02.02.02.63.84,1.41,1.68,2.36,2.5.04.04.07.07.12.11h8.18s-.03-.02-.07-.06c-.75-.66-8.26-7.6-1.11-17.76l.13-1.82-7.57-.19Z"/>
      <path class="cls-8" d="M76.46,77.13s-1.99-1.42-3.08-4.57v-15.81l-24.43,19.26-.92,1.87h0s12.9,0,28.44-.75Z"/>
      <path class="cls-10" d="M48.44,35.53l9.08-7.07,17.1,10.99s-.73-17.44-2.19-24.79c0,0,1.74-7.4,7.12-12.5,0,0-.56-1.96-3.48-1.96s-18.28-.95-27.64,1.23c0,0-2.35,1.37,0,10.26,2.41,9.14,0,23.83,0,23.83Z"/>
    </g>
  </g>
</svg>